<svg xmlns="http://www.w3.org/2000/svg" xmlns:xlink="http://www.w3.org/1999/xlink" version="1.1" id="Layer_1" x="0px" y="0px" width="30px" height="30px" viewBox="0 0 30 30" enable-background="new 0 0 30 30" xml:space="preserve">
<path fill-rule="evenodd" clip-rule="evenodd" d="M16.863,17c0.008-0.248,0-1.165,1.196-1.165c1.188,0,1.181,0.926,1.188,1.165  v0.457h0.889V17c0,0,0-2.035-2.077-2.035c-2.086,0-2.086,2.035-2.086,2.035v0.457h0.89V17z M15.137,18.285v3.32  c0,0.305,0.255,0.553,0.563,0.553h4.719c0.309,0,0.556-0.248,0.556-0.553v-3.32c0-0.309-0.247-0.557-0.556-0.557H15.7  C15.392,17.729,15.137,17.977,15.137,18.285z M18.271,21.443c-0.078,0.037-0.431,0.012-0.501,0.02c-0.062,0.008-0.115,0-0.168-0.025  c-0.044-0.027-0.07-0.072-0.088-0.133c-0.009-0.088,0.018-0.264,0.098-0.537c0.149-0.539,0.22-0.855,0.202-0.961  c-0.01-0.045-0.044-0.07-0.115-0.061c-0.07,0.008-0.114-0.01-0.378,0.139l-0.097-0.148c0.511-0.307,0.739-0.379,0.916-0.396  c0.053-0.008,0.36,0.045,0.396,0.064c0.026,0.016,0.051,0.033,0.051,0.07c0.019,0.086-0.008,0.244-0.077,0.482  c-0.168,0.609-0.239,0.979-0.221,1.102c0.008,0.043,0.044,0.061,0.115,0.053c0.086-0.01,0.132,0.008,0.396-0.143l0.086,0.15  C18.597,21.305,18.465,21.348,18.271,21.443z M18.597,18.795c-0.087,0.088-0.192,0.133-0.316,0.148c-0.106,0.01-0.203,0-0.273-0.043  c-0.08-0.035-0.123-0.096-0.141-0.178c-0.019-0.104,0.027-0.191,0.114-0.279c0.097-0.09,0.212-0.143,0.343-0.158  c0.106-0.01,0.187,0.008,0.256,0.041c0.071,0.039,0.106,0.098,0.124,0.178C18.72,18.611,18.686,18.707,18.597,18.795z"/>
<path fill-rule="evenodd" clip-rule="evenodd" d="M9.695,9.321V20.6c0,0.652,0.519,1.172,1.171,1.172h3.302v-0.783h-3.302  c-0.22,0-0.396-0.168-0.396-0.389V9.321c0-0.211,0.177-0.388,0.396-0.388h5.829v2.791c0,0.176,0.149,0.327,0.325,0.327h2.782v2.456  l0.784,0.907v-3.565l-0.02-0.018c0.011-0.036,0.02-0.071,0.02-0.106l-3.566-3.565c-0.034,0-0.078,0.009-0.115,0.018l-0.017-0.018  h-6.022C10.214,8.159,9.695,8.678,9.695,9.321z"/>
</svg>