<svg xmlns="http://www.w3.org/2000/svg" xmlns:xlink="http://www.w3.org/1999/xlink" version="1.1" id="Layer_1" x="0px" y="0px" width="100px" height="100px" viewBox="0 0 100 100" enable-background="new 0 0 100 100" xml:space="preserve">
<g>
	<path d="M51.57,35.179c-17.513,0-31.71,14.197-31.71,31.71c0,17.514,14.197,31.71,31.71,31.71   c17.514,0,31.71-14.196,31.71-31.71C83.28,49.376,69.084,35.179,51.57,35.179z M42.765,84.235h-0.887l6.274-19.118   c-3.071-1.323-5.221-4.378-5.221-7.936c0-4.771,3.868-8.639,8.639-8.639c4.77,0,8.639,3.867,8.639,8.639   c0,3.558-2.148,6.611-5.221,7.936l6.274,19.118H42.765z"/>
	<path d="M40.326,22.653c0-6.201,5.044-11.246,11.245-11.246c6.201,0,11.245,5.045,11.245,11.246v12.893   c3.692,1.356,7.073,3.361,10.009,5.875V22.653C72.824,10.934,63.289,1.4,51.57,1.4c-11.718,0-21.252,9.534-21.252,21.252V41.42   c2.934-2.514,6.315-4.519,10.007-5.875V22.653z"/>
</g>
</svg>