<svg xmlns="http://www.w3.org/2000/svg" xmlns:xlink="http://www.w3.org/1999/xlink" version="1.1" id="Calque_1" x="0px" y="0px" width="100px" height="100px" viewBox="0 0 100 100" enable-background="new 0 0 100 100" xml:space="preserve">
<g>
	<path d="M75.75,37.466c0.425,0.425,0.552,1.063,0.322,1.618C75.842,39.639,75.301,40,74.7,40l-49.401,0   c-0.6,0-1.142-0.362-1.371-0.917c-0.23-0.555-0.103-1.193,0.322-1.618l23.441-23.441c1.275-1.275,3.342-1.275,4.618,0L75.75,37.466   z"/>
	<path d="M24.249,62.534c-0.425-0.425-0.552-1.063-0.322-1.618C24.157,60.361,24.698,60,25.298,60h49.403   c0.601,0,1.142,0.361,1.372,0.916c0.229,0.555,0.103,1.193-0.322,1.618L52.309,85.977c-1.275,1.275-3.343,1.274-4.618,0   L24.249,62.534z"/>
</g>
</svg>