<?xml version="1.0" encoding="utf-8"?>
<!-- Generator: Adobe Illustrator 15.1.0, SVG Export Plug-In . SVG Version: 6.00 Build 0)  -->
<!DOCTYPE svg PUBLIC "-//W3C//DTD SVG 1.1//EN" "http://www.w3.org/Graphics/SVG/1.1/DTD/svg11.dtd">
<svg version="1.1" id="Layer_1" xmlns="http://www.w3.org/2000/svg" xmlns:xlink="http://www.w3.org/1999/xlink" x="0px" y="0px"
	 width="354px" height="333px" viewBox="0 0 354 333" enable-background="new 0 0 354 333" xml:space="preserve">
<line fill="#FFFFFF" x1="-164" y1="-251" x2="-164" y2="-251"/>
<g>
	<defs>
		<rect id="SVGID_1_" x="-183.595" y="-241.56" width="725" height="972"/>
	</defs>
	<clipPath id="SVGID_2_">
		<use xlink:href="#SVGID_1_"  overflow="visible"/>
	</clipPath>
	<g clip-path="url(#SVGID_2_)">
		<defs>
			<rect id="SVGID_3_" x="-118.595" y="-176.6" width="594.96" height="842.04"/>
		</defs>
		<clipPath id="SVGID_4_">
			<use xlink:href="#SVGID_3_"  overflow="visible"/>
		</clipPath>
		<path clip-path="url(#SVGID_4_)" fill-rule="evenodd" clip-rule="evenodd" fill="#4D4D4D" d="M178.453,166.656l46.965-33.744
			l0.01,15.395c-0.275,11.885-4.275,29.233-14.422,41.69L178.453,166.656"/>
		<path clip-path="url(#SVGID_4_)" fill-rule="evenodd" clip-rule="evenodd" fill="#4D4D4D" d="M178.435,166.65l-47.063-33.838
			l0.01,15.338c0.292,11.979,4.291,29.327,14.438,41.784L178.435,166.65"/>
		<polyline clip-path="url(#SVGID_4_)" fill-rule="evenodd" clip-rule="evenodd" fill="#D8D8D8" points="178.435,166.65 
			131.371,132.921 131.56,132.624 225.186,132.515 225.387,132.916 178.435,166.65 		"/>
		<polyline clip-path="url(#SVGID_4_)" fill-rule="evenodd" clip-rule="evenodd" fill="#757575" points="225.434,132.931 
			225.434,90.812 131.371,90.796 131.371,132.921 225.434,132.931 		"/>
		<path clip-path="url(#SVGID_4_)" fill="#D8D8D8" d="M51.482,109.931c4.655-2.799,10.696-1.291,13.493,3.368
			c2.796,4.658,1.289,10.703-3.367,13.501c-4.655,2.799-10.696,1.291-13.492-3.367C45.319,118.774,46.826,112.729,51.482,109.931"/>
		<path clip-path="url(#SVGID_4_)" fill="#D8D8D8" d="M56.513,118.343"/>
		<path clip-path="url(#SVGID_4_)" fill="#D8D8D8" d="M44.861,134.572c4.297-2.583,9.873-1.191,12.455,3.109
			c2.581,4.3,1.19,9.88-3.108,12.463c-4.297,2.583-9.873,1.191-12.455-3.109C39.172,142.735,40.563,137.155,44.861,134.572"/>
		<path clip-path="url(#SVGID_4_)" fill="#D8D8D8" d="M49.513,142.343"/>
		<path clip-path="url(#SVGID_4_)" fill="#D8D8D8" d="M43.311,159.097c3.94-2.368,9.051-1.092,11.417,2.85
			c2.367,3.942,1.091,9.057-2.848,11.425s-9.051,1.092-11.417-2.851C38.096,166.58,39.372,161.465,43.311,159.097"/>
		<path clip-path="url(#SVGID_4_)" fill="#D8D8D8" d="M47.585,166.227"/>
		<path clip-path="url(#SVGID_4_)" fill="#D8D8D8" d="M45.618,181.104c3.581-2.151,8.228-0.992,10.379,2.592
			c2.151,3.582,0.992,8.232-2.589,10.386s-8.228,0.993-10.379-2.591S42.037,183.257,45.618,181.104"/>
		<path clip-path="url(#SVGID_4_)" fill="#D8D8D8" d="M49.513,187.593"/>
		<path clip-path="url(#SVGID_4_)" fill="#D8D8D8" d="M50.997,201.746c3.223-1.938,7.405-0.895,9.341,2.331
			c1.936,3.225,0.893,7.409-2.33,9.347s-7.405,0.895-9.341-2.331C46.731,207.868,47.774,203.684,50.997,201.746"/>
		<path clip-path="url(#SVGID_4_)" fill="#D8D8D8" d="M54.513,207.593"/>
		<path clip-path="url(#SVGID_4_)" fill-rule="evenodd" clip-rule="evenodd" fill="#D8D8D8" d="M210.998,189.934l-32.563-23.284
			l-32.616,23.284c8.358,10.889,19.647,19.644,32.705,24.502C191.645,209.553,202.756,200.9,210.998,189.934"/>
		<path clip-path="url(#SVGID_4_)" fill="#D8D8D8" d="M306.529,109.128c7.629,17.057,11.938,35.923,12.104,55.777l15.08-0.011
			l-0.012,1.668l-28.629-0.014c-0.125-18.72-3.986-36.029-11.088-51.789L306.529,109.128z"/>
		<path clip-path="url(#SVGID_4_)" fill="none" stroke="#D8D8D8" stroke-miterlimit="3.864" d="M306.529,109.128
			c7.629,17.057,11.938,35.923,12.104,55.777l15.08-0.011l-0.012,1.668l-28.629-0.014c-0.125-18.72-3.986-36.029-11.088-51.789
			L306.529,109.128z"/>
		<path clip-path="url(#SVGID_4_)" fill-rule="evenodd" clip-rule="evenodd" fill="#4D4D4D" d="M78.923,84.122
			c2.747,2.679,5.013,1.81,7.374-0.824c1.099-1.226,2.093-2.982,1.676-4.661c-0.346-1.434-1.41-2.714-2.636-3.814l-6.393-5.731
			c-1.166-1.045-1.672-0.846-2.771,0.381l-0.309,0.303l-0.603-0.54c0.781-0.75,1.543-1.519,2.263-2.323
			c0.721-0.804,1.402-1.644,2.045-2.482l0.603,0.54l-0.268,0.34c-1.136,1.267-1.297,1.811-0.131,2.856l7.418,6.65
			c1.106,0.992,1.718,2.048,2.142,3.516c0.283,0.979,0.142,2.593-0.266,3.533c-0.423,0.998-1.29,2.288-2.01,3.093
			c-1.641,1.829-3.886,3.768-6.541,3.129c-1.355-0.308-2.079-0.957-3.084-1.858l-7.238-6.488c-1.568-1.406-1.69-1.552-3.521,0.288
			l-0.603-0.541c0.871-0.851,1.758-1.76,2.641-2.745c0.883-0.985,1.69-1.966,2.495-2.985l0.603,0.541
			c-1.629,2.02-1.471,2.126,0.098,3.532L78.923,84.122"/>
		<path clip-path="url(#SVGID_4_)" fill-rule="evenodd" clip-rule="evenodd" fill="#4D4D4D" d="M107.774,62.359l-8.118-10.685
			c-0.948-1.247-1.481-1.146-2.793-0.15l-0.36,0.24l-0.49-0.645c0.909-0.589,1.801-1.199,2.661-1.853
			c0.86-0.653,1.687-1.349,2.477-2.051l0.49,0.645l-0.328,0.283c-1.354,1.029-1.616,1.533-0.668,2.78l9.457,12.448l0.669,0.746
			l-1.927,0.989l-19.972-4.73l7.97,10.491c0.948,1.247,1.503,1.13,2.858,0.101l0.36-0.24l0.49,0.645
			c-0.887,0.573-1.78,1.183-2.64,1.837c-0.86,0.653-1.687,1.349-2.498,2.067l-0.49-0.645l0.327-0.283
			c1.313-0.996,1.552-1.483,0.605-2.73l-8.216-10.815c-0.948-1.247-1.439-1.179-2.659-0.286l-0.301,0.229l-0.49-0.645
			c0.673-0.409,1.307-0.823,1.952-1.313c0.624-0.474,1.193-0.974,1.767-1.512L107.774,62.359"/>
		<path clip-path="url(#SVGID_4_)" fill-rule="evenodd" clip-rule="evenodd" fill="#4D4D4D" d="M118.554,55.511
			c1.019,1.843,1.087,2.022,3.421,0.885l0.393,0.709c-1.174,0.556-2.311,1.123-3.469,1.763c-1.158,0.641-2.242,1.302-3.266,1.961
			l-0.393-0.709c2.203-1.372,2.088-1.525,1.068-3.368l-5.997-10.845c-1.019-1.843-1.087-2.021-3.421-0.885l-0.392-0.709
			c1.103-0.517,2.239-1.084,3.397-1.724c1.158-0.64,2.242-1.301,3.337-2l0.392,0.709c-2.203,1.373-2.088,1.525-1.068,3.368
			L118.554,55.511"/>
		<path clip-path="url(#SVGID_4_)" fill-rule="evenodd" clip-rule="evenodd" fill="#4D4D4D" d="M120.548,39.791
			c-1.089-1.137-0.929-1.317-2.388-0.971l-0.487,0.164l-0.298-0.753c1.134-0.362,2.259-0.749,3.388-1.196
			c1.13-0.447,2.216-0.934,3.29-1.447l0.298,0.753c-2.43,0.904-2.091,1.321-1.716,1.754l2.057,2.409l7.842,8.366l0.049-9.486
			l-0.122-3.465c-0.056-1.604,0.286-3.017-2.687-1.724l-0.299-0.753c0.934-0.283,1.833-0.58,2.762-0.948
			c0.928-0.367,1.787-0.765,2.662-1.199l0.297,0.754c-1.646,0.535-1.328,1.484-1.342,2.767l-0.109,11.978l0.055,5.35l-1.255,0.497
			l-1.198-1.414l-1.783-1.936L120.548,39.791"/>
		<path clip-path="url(#SVGID_4_)" fill-rule="evenodd" clip-rule="evenodd" fill="#4D4D4D" d="M146.678,43.973
			c0.225,0.946,0.4,1.57,0.668,2.228c1.004-0.1,2.344-0.418,3.604-0.717c1.42-0.337,2.852-0.733,4.125-1.451
			c0.037-0.426,0.056-0.93-0.004-1.415l-0.106-1.501l0.866-0.206c0.027,0.577,0.043,1.35,0.242,2.19l0.519,2.181
			c-0.94,0.362-2.707,0.754-4.329,1.167c-1.568,0.289-3.158,0.611-4.76,0.991c-1.602,0.381-3.141,0.802-4.725,1.261l-0.187-0.788
			c1.301-0.364,2.116-1.141,1.698-2.901l-2.864-12.057c-0.485-2.049-0.504-2.24-3.058-1.772l-0.187-0.788
			c1.621-0.302,3.21-0.624,4.839-1.011c1.629-0.386,3.219-0.82,4.776-1.272c1.661-0.367,3.467-0.824,4.392-0.905
			c-0.084,0.936,0.012,1.801,0.184,2.648c0.133,0.552,0.16,1.017,0.291,1.569l-0.815,0.193c-0.269-1.018-0.603-1.716-0.979-2.487
			c-1.354-0.094-2.705,0.171-4.02,0.483c-1.156,0.275-2.391,0.568-3.227,0.905c0.052,0.682,0.168,1.292,0.387,2.212l1.167,4.912
			c5.739-1.308,6.183-1.08,5.597-3.66l0.866-0.206l1.442,6.068l-0.867,0.206c-0.705-2.969-0.852-2.767-6.739-1.147L146.678,43.973"
			/>
		<path clip-path="url(#SVGID_4_)" fill-rule="evenodd" clip-rule="evenodd" fill="#4D4D4D" d="M162.566,28.834
			c-0.152-2.101-0.139-2.291-2.733-2.239l-0.058-0.808c1.514-0.028,3.08-0.087,4.668-0.201c1.588-0.115,3.146-0.281,4.703-0.475
			c3.702-0.456,5.571,1.44,5.734,3.702c0.212,2.935-2.301,4.876-4.876,5.576l6.687,7.53c0.469,0.481,1.045,0.602,1.59,0.644
			l0.059,0.808c-0.6-0.038-1.223-0.048-1.842-0.003c-0.619,0.044-1.207,0.141-1.821,0.267c-0.472-0.535-0.802-0.998-1.212-1.429
			l-7.004-7.779l0.078-0.411c0.84-0.007,1.672-0.094,2.471-0.287c1.861-0.459,3.373-2.029,3.229-4.022
			c-0.209-2.908-2.426-3.615-4.418-3.471c-0.943,0.068-1.957,0.276-2.668,0.544c-0.129,0.469-0.088,1.035-0.027,1.87l0.89,12.36
			c0.152,2.101,0.138,2.291,2.733,2.24l0.059,0.808c-1.299,0.012-2.568,0.049-3.888,0.145c-1.32,0.095-2.581,0.24-3.788,0.408
			l-0.059-0.808c2.576-0.321,2.535-0.508,2.385-2.608L162.566,28.834"/>
		<path clip-path="url(#SVGID_4_)" fill-rule="evenodd" clip-rule="evenodd" fill="#4D4D4D" d="M192.943,30.059
			c0.078-1.023,0.131-1.723-0.105-2.175c-0.641-1.186-2.52-1.762-3.785-1.858c-2.207-0.168-4.209,1.224-4.385,3.539
			c-0.443,5.842,10.639,1.811,10.125,8.568c-0.35,4.604-4.637,6.498-8.646,6.194c-1.617-0.123-3.094-0.641-4.527-1.373
			c0.186-1.015,0.338-2.303,0.445-3.351l0.057-0.754l0.916,0.069l-0.098,1.266c-0.045,0.592-0.029,1.108,0.271,1.428
			c1.004,1.025,2.705,1.452,4.078,1.556c2.424,0.184,4.9-1.063,5.104-3.728c0.496-6.515-10.629-1.241-10.033-9.076
			c0.281-3.688,3.582-5.793,7.055-5.529c1.83,0.139,3.482,0.86,5.129,1.636c-0.113,0.424-0.254,0.847-0.314,1.275
			c-0.115,0.804-0.281,1.577-0.369,2.382L192.943,30.059"/>
		<path clip-path="url(#SVGID_4_)" fill-rule="evenodd" clip-rule="evenodd" fill="#4D4D4D" d="M203.99,43.045
			c-0.404,2.067-0.467,2.247,2.051,2.877l-0.156,0.795c-1.256-0.328-2.49-0.625-3.789-0.879s-2.555-0.444-3.764-0.598l0.156-0.795
			c2.57,0.365,2.58,0.174,2.984-1.892l2.379-12.163c0.402-2.067,0.467-2.247-2.053-2.877l0.156-0.795
			c1.178,0.313,2.412,0.609,3.711,0.863c1.297,0.254,2.555,0.445,3.842,0.614l-0.156,0.795c-2.57-0.365-2.578-0.175-2.984,1.892
			L203.99,43.045"/>
		<path clip-path="url(#SVGID_4_)" fill-rule="evenodd" clip-rule="evenodd" fill="#4D4D4D" d="M220.525,35.46
			c0.299-0.982,0.57-1.802,0.748-2.597l-3.988-1.181c-0.547-0.152-0.881-0.178-1.152,0.472c-0.307,0.581-0.682,1.196-0.936,1.879
			l-0.77-0.255c0.16-0.487,0.314-0.948,0.449-1.443c0.273-0.906,0.545-1.811,0.783-2.785c2.408,0.885,4.826,1.744,7.338,2.577
			c2.484,0.824,4.938,1.581,7.447,2.328c-0.391,0.923-0.713,1.811-1.037,2.7c-0.188,0.478-0.34,0.94-0.502,1.426l-0.768-0.255
			c0.203-0.7,0.27-1.417,0.373-2.066c0.168-0.684-0.113-0.862-0.643-1.067l-3.957-1.454c-0.33,0.743-0.602,1.563-0.951,2.529
			l-3.639,10.968c-0.664,1.999-0.748,2.17,1.67,3.114l-0.256,0.769c-1.205-0.485-2.391-0.936-3.648-1.353
			c-1.256-0.416-2.477-0.764-3.654-1.07l0.254-0.769c2.504,0.688,2.537,0.5,3.201-1.499L220.525,35.46"/>
		<path clip-path="url(#SVGID_4_)" fill-rule="evenodd" clip-rule="evenodd" fill="#4D4D4D" d="M271.643,59.266
			c-4.68-4.167-10.445-3.453-14.057,0.707c-4.033,4.649-3.412,10.194,0.727,13.787c4.467,3.875,10.936,3.341,14.74-1.043
			C276.982,68.19,276.006,63.053,271.643,59.266 M259.727,73.449c-4.037-3.504-2.473-8.687,0.625-12.255
			c2.902-3.344,6.654-4.414,10.203-1.335c3.793,3.292,3.271,7.559-0.232,11.596C267.066,75.207,263.326,76.18,259.727,73.449z"/>
		<path clip-path="url(#SVGID_4_)" fill-rule="evenodd" clip-rule="evenodd" fill="#4D4D4D" d="M281.674,74.171
			c1.611-1.357,1.773-1.458,0.207-3.527l0.619-0.522c1,1.312,2.002,2.586,3.08,3.866c1.078,1.281,2.18,2.506,3.285,3.693
			c1.074,1.319,2.295,2.727,2.783,3.516c-0.873,0.347-1.604,0.821-2.281,1.356c-0.434,0.366-0.838,0.599-1.27,0.964l-0.541-0.64
			c0.789-0.699,1.264-1.31,1.781-1.993c-0.525-1.253-1.371-2.341-2.24-3.373c-0.766-0.909-1.582-1.88-2.26-2.475
			c-0.402,0.234-0.83,0.523-1.43,1.027l-4.234,3.565c3.75,4.538,3.746,5.036,5.787,3.352l0.574,0.682l-4.771,4.017l-0.572-0.682
			c2.334-1.965,2.088-2.005-2.008-6.534l-4.338,3.652c-1.611,1.356-1.773,1.457-0.207,3.527l-0.619,0.522
			c-0.773-1.044-1.549-2.049-2.4-3.061c-0.852-1.012-1.711-1.948-2.555-2.826l0.619-0.521c1.771,1.896,1.898,1.753,3.51,0.397
			L281.674,74.171"/>
		<path clip-path="url(#SVGID_4_)" fill-rule="evenodd" clip-rule="evenodd" fill="#4D4D4D" d="M88.144,261.297
			c0,1.68-0.663,2.064-2.067,2.334v1.148c1.716-0.115,3.436-0.186,5.195-0.186c1.758,0,3.475,0.07,5.193,0.186
			c9.368,0.625,16.605-5.863,16.605-15.271c0-7.572-5.949-12.056-13.209-11.979c-2.498,0.117-4.996,0.188-7.573,0.188
			c-2.58,0-5.08-0.07-7.576-0.186v1.205c3.081,0.039,3.432,0.271,3.432,3.94V261.297 M91.82,242.833c0-1.405,0.039-2.42,0.156-3.317
			c1.757-0.078,3.474-0.236,5.192-0.236c6.714,0,11.788,3.164,11.788,11.4c0,7.143-3.357,12.682-13.311,12.414
			c-1.405-0.039-2.576-0.117-3.669-0.275c-0.156-1.014-0.156-2.186-0.156-3.318V242.833z"/>
		<path clip-path="url(#SVGID_4_)" fill-rule="evenodd" clip-rule="evenodd" fill="#4D4D4D" d="M125.068,255.791
			c-0.232,5.525,2.887,7.119,8,7.119c2.379,0,5.228-0.621,6.633-2.684c1.209-1.75,1.561-4.123,1.561-6.496v-12.373
			c0-2.256-0.702-2.605-3.083-2.605l-0.624-0.04v-1.175c1.561,0.117,3.121,0.175,4.686,0.175c1.563,0,3.123-0.058,4.645-0.176v1.176
			l-0.624,0.04c-2.457,0-3.198,0.35-3.198,2.605v14.357c0,2.139-0.548,3.811-1.723,5.68c-0.78,1.244-2.652,2.652-4.059,3.121
			c-1.482,0.508-3.707,0.822-5.268,0.822c-3.55,0-7.799-0.549-9.662-4.021c-0.971-1.752-0.971-3.152-0.971-5.096v-14.007
			c0-3.034,0.039-3.308-3.705-3.502v-1.175c1.755,0.117,3.588,0.175,5.491,0.175c1.901,0,3.735-0.058,5.608-0.176v1.176
			c-3.746,0.194-3.707,0.468-3.707,3.502V255.791"/>
		<path clip-path="url(#SVGID_4_)" fill-rule="evenodd" clip-rule="evenodd" fill="#4D4D4D" d="M176.474,260.717v-19.355
			c0-2.26-0.702-2.609-3.082-2.609l-0.624-0.04v-1.176c1.561,0.118,3.121,0.196,4.686,0.196c1.563,0,3.123-0.078,4.645-0.196v1.176
			l-0.625,0.04c-2.457,0-3.197,0.35-3.197,2.609v22.551l0.116,1.447l-3.089-0.547l-18.841-22.867v19.004
			c0,2.26,0.741,2.611,3.198,2.611l0.625,0.039v1.174c-1.521-0.117-3.082-0.174-4.646-0.174s-3.123,0.057-4.683,0.174V263.6
			l0.623-0.039c2.38,0,3.082-0.352,3.082-2.611v-19.588c0-2.26-0.625-2.609-2.809-2.649h-0.546v-1.175
			c1.132,0.117,2.224,0.175,3.394,0.175c1.135,0,2.229-0.058,3.361-0.176L176.474,260.717"/>
		<path clip-path="url(#SVGID_4_)" fill-rule="evenodd" clip-rule="evenodd" fill="#4D4D4D" d="M190.441,261.297
			c0,1.68-0.664,2.064-2.068,2.334v1.148c1.717-0.115,3.436-0.186,5.195-0.186c1.758,0,3.475,0.07,5.193,0.186
			c9.367,0.625,16.604-5.863,16.604-15.271c0-7.572-5.947-12.056-13.209-11.979c-2.498,0.117-4.996,0.188-7.572,0.188
			c-2.58,0-5.08-0.07-7.576-0.186v1.205c3.082,0.039,3.434,0.271,3.434,3.94V261.297 M194.115,242.833
			c0-1.405,0.039-2.42,0.156-3.317c1.758-0.078,3.475-0.236,5.191-0.236c6.715,0,11.789,3.164,11.789,11.4
			c0,7.143-3.355,12.682-13.311,12.414c-1.404-0.039-2.576-0.117-3.67-0.275c-0.156-1.014-0.156-2.186-0.156-3.318V242.833z"/>
		<path clip-path="url(#SVGID_4_)" fill-rule="evenodd" clip-rule="evenodd" fill="#4D4D4D" d="M227.803,259.428
			c0,1.402,0.039,2.338,0.193,3.352c1.443,0.195,3.43,0.195,5.299,0.195c2.104,0,4.246-0.078,6.266-0.664
			c0.191-0.584,0.383-1.285,0.459-1.988l0.346-2.143h1.287c-0.156,0.818-0.391,1.91-0.391,3.158v3.24
			c-1.434,0.195-4.031,0.156-6.447,0.195c-2.299-0.117-4.635-0.174-7.012-0.174c-2.367,0-4.662,0.057-7.041,0.174V263.6
			c1.949-0.078,3.354-0.898,3.354-3.51v-17.875c0-3.035,0.039-3.309-3.705-3.504v-1.174c2.379,0.117,4.713,0.175,7.121,0.175
			c2.414,0,4.789-0.058,7.127-0.176c2.455,0.038,5.131,0,6.447,0.196c-0.428,1.291-0.584,2.539-0.623,3.783
			c0,0.816-0.117,1.478-0.117,2.293h-1.188c-0.039-1.516-0.273-2.604-0.547-3.811c-1.869-0.583-3.855-0.661-5.803-0.661
			c-1.715,0-3.545,0-4.832,0.194c-0.154,0.973-0.193,1.867-0.193,3.228v7.272c8.492,0.078,9.037,0.547,9.076-3.266h1.285v8.998
			h-1.285c0-4.406-0.271-4.172-9.076-3.859V259.428"/>
		<path clip-path="url(#SVGID_4_)" fill-rule="evenodd" clip-rule="evenodd" fill="#4D4D4D" d="M254.75,259.428
			c0,1.402,0.039,2.338,0.195,3.352c1.443,0.195,3.428,0.195,5.299,0.195c2.104,0,4.246-0.078,6.264-0.664
			c0.193-0.584,0.385-1.285,0.461-1.988l0.346-2.143h1.287c-0.156,0.818-0.391,1.91-0.391,3.158v3.24
			c-1.434,0.195-4.031,0.156-6.447,0.195c-2.299-0.117-4.637-0.174-7.014-0.174c-2.367,0-4.662,0.057-7.041,0.174V263.6
			c1.951-0.078,3.355-0.898,3.355-3.51v-17.875c0-3.035,0.039-3.309-3.705-3.504v-1.174c2.379,0.117,4.713,0.175,7.121,0.175
			c2.414,0,4.789-0.058,7.127-0.176c2.455,0.038,5.131,0,6.447,0.196c-0.43,1.291-0.584,2.539-0.623,3.783
			c0,0.816-0.117,1.478-0.117,2.293h-1.189c-0.039-1.516-0.271-2.604-0.545-3.811c-1.869-0.583-3.855-0.661-5.803-0.661
			c-1.715,0-3.545,0-4.832,0.194c-0.156,0.973-0.195,1.867-0.195,3.228v7.272c8.494,0.078,9.039,0.547,9.078-3.266h1.285v8.998
			h-1.285c0-4.406-0.273-4.172-9.078-3.859V259.428"/>
		<path clip-path="url(#SVGID_4_)" fill-rule="evenodd" clip-rule="evenodd" fill="#DADADA" d="M178.508,124.868h-0.082
			c-18.294,0-28.102,4.276-28.102,4.276l-14.846-24.01c0,0,7.172-1.129,9.444,8.672c0.245-3.835,2.592-5.344,4.623-4.021
			c4.083,3.438,0.683,7.508,0.683,7.508s-0.447-3.686-2.664-2.021c-1.242,0.901-0.738,2.016-0.738,2.016s0.341,1.157,1.769,2.424
			c1.177,1.09,8.532,0.49,10.569-4.253c0.754-2.733,0.187-5.312-0.963-5.94c-1.148-0.627-1.914,0.332-2.051,0.57
			c-0.139,0.238-0.068,1.157-0.068,1.157s-1.145-0.631-0.928-1.921c0.043-0.26-0.72,0.2-0.869,0.237
			c-0.832,0.208-1.895-0.445-1.895-0.445s0.607-1.074,1.438-1.298c0.147-0.04,1.037-0.009,0.873-0.215
			c-0.816-1.022-0.123-2.13-0.123-2.13s0.386,0.838,0.621,0.979c0.236,0.14,1.371,0.607,2.07-0.5c0.699-1.108-0.32-1.982-0.558-2.12
			c-0.238-0.137-1.157-0.068-1.157-0.068s0.633-1.144,1.921-0.927c0.261,0.044-0.198-0.719-0.235-0.868
			c-0.207-0.833,0.354-1.87,0.354-1.87s1.039,0.654,1.263,1.483c0.041,0.148,0.01,1.037,0.217,0.873
			c1.021-0.817,2.129-0.125,2.129-0.125s-0.838,0.387-0.978,0.623c-0.141,0.236-0.606,1.495,0.542,2.123
			c1.149,0.628,1.915-0.332,2.053-0.569c0.138-0.238,0.067-1.158,0.067-1.158s1.146,0.632,0.929,1.921
			c-0.043,0.26,0.719-0.199,0.867-0.236c0.833-0.208,1.895,0.444,1.895,0.444s-0.611,1.108-1.44,1.331
			c-0.147,0.04-1.037,0.009-0.873,0.215c0.815,1.022,0.123,2.13,0.123,2.13s-0.386-0.837-0.622-0.978
			c-0.236-0.141-1.371-0.607-2.07,0.5s-0.142,3.436,2.119,5.688c3.711,2.864,11.047,0.763,11.438-1.408
			c0.572-1.821,0.27-2.989,0.27-2.989s-0.142-1.215-1.671-1.348c-2.758-0.286-1.245,3.104-1.245,3.104s-5.01-1.74-3.277-6.789
			c1.061-2.179,3.849-2.094,6.033,1.068c-3.096-9.573,3.123-12.332,3.123-12.332h0.002c0,0,6.219,2.759,3.125,12.332
			c2.182-3.162,4.971-3.247,6.031-1.068c1.732,5.049-3.277,6.789-3.277,6.789s1.514-3.39-1.244-3.104
			c-1.529,0.133-1.672,1.348-1.672,1.348s-0.303,1.168,0.27,2.989c0.393,2.171,7.744,4.272,11.455,1.408
			c2.262-2.252,2.801-4.581,2.102-5.688s-1.834-0.641-2.07-0.5c-0.234,0.141-0.621,0.978-0.621,0.978s-0.693-1.108,0.121-2.13
			c0.166-0.206-0.725-0.175-0.873-0.215c-0.828-0.223-1.439-1.331-1.439-1.331s1.061-0.652,1.895-0.444
			c0.148,0.037,0.91,0.496,0.867,0.236c-0.215-1.289,0.928-1.921,0.928-1.921s-0.068,0.92,0.068,1.158
			c0.137,0.237,0.904,1.197,2.053,0.569c1.148-0.627,0.684-1.887,0.543-2.123c-0.141-0.236-0.979-0.623-0.979-0.623
			s1.109-0.692,2.131,0.125c0.205,0.164,0.176-0.725,0.215-0.873c0.225-0.829,1.264-1.483,1.264-1.483s0.561,1.037,0.354,1.87
			c-0.037,0.149-0.496,0.912-0.236,0.868c1.289-0.217,1.922,0.927,1.922,0.927s-0.92-0.069-1.158,0.068
			c-0.236,0.138-1.256,1.012-0.557,2.12c0.699,1.107,1.834,0.64,2.07,0.5c0.234-0.141,0.621-0.979,0.621-0.979
			s0.693,1.108-0.121,2.13c-0.166,0.206,0.725,0.175,0.873,0.215c0.828,0.224,1.436,1.298,1.436,1.298s-1.063,0.653-1.895,0.445
			c-0.15-0.037-0.912-0.497-0.867-0.237c0.215,1.29-0.93,1.921-0.93,1.921s0.07-0.919-0.068-1.157
			c-0.137-0.238-0.902-1.197-2.051-0.57c-1.15,0.628-1.715,3.207-0.963,5.94c2.037,4.743,9.393,5.343,10.568,4.253
			c1.43-1.267,1.771-2.424,1.771-2.424s0.502-1.115-0.74-2.016c-2.217-1.665-2.664,2.021-2.664,2.021s-3.4-4.071,0.684-7.508
			c2.029-1.323,4.377,0.187,4.621,4.021c2.273-9.801,9.445-8.672,9.445-8.672l-14.846,24.01
			C206.646,129.144,196.803,124.868,178.508,124.868"/>
		<path clip-path="url(#SVGID_4_)" fill-rule="evenodd" clip-rule="evenodd" fill="#757575" d="M162.309,121.405
			c-0.188-1.062,1.188-2.191,3.069-2.523c1.882-0.331,3.56,0.261,3.745,1.323c0.188,1.061-1.186,2.191-3.068,2.522
			C164.173,123.058,162.496,122.466,162.309,121.405"/>
		<path clip-path="url(#SVGID_4_)" fill-rule="evenodd" clip-rule="evenodd" fill="#757575" d="M165.67,120.664"/>
		<path clip-path="url(#SVGID_4_)" fill="none" stroke="#4D4D4D" stroke-width="0.999" d="M165.67,120.664"/>
		<path clip-path="url(#SVGID_4_)" fill-rule="evenodd" clip-rule="evenodd" fill="#757575" d="M194.711,121.439
			c0.188-1.062-1.188-2.191-3.068-2.523c-1.883-0.331-3.561,0.261-3.746,1.322c-0.188,1.062,1.186,2.191,3.068,2.523
			C192.848,123.092,194.523,122.5,194.711,121.439"/>
		<path clip-path="url(#SVGID_4_)" fill-rule="evenodd" clip-rule="evenodd" fill="#757575" d="M191.256,120.698"/>
		<path clip-path="url(#SVGID_4_)" fill="none" stroke="#4D4D4D" stroke-width="0.999" d="M191.256,120.698"/>
		<polyline clip-path="url(#SVGID_4_)" fill-rule="evenodd" clip-rule="evenodd" fill="#4D4D4D" points="199.746,122.375 
			203.961,121.665 206.844,124.771 202.629,125.48 199.746,122.375 		"/>
		<polyline clip-path="url(#SVGID_4_)" fill-rule="evenodd" clip-rule="evenodd" fill="#4D4D4D" points="157.314,122.464 
			153.1,121.754 150.217,124.859 154.431,125.569 157.314,122.464 		"/>
		
			<rect x="174.416" y="118.049" clip-path="url(#SVGID_4_)" fill-rule="evenodd" clip-rule="evenodd" fill="#4D4D4D" width="8.162" height="3.993"/>
		<path clip-path="url(#SVGID_4_)" fill-rule="evenodd" clip-rule="evenodd" fill="#4D4D4D" d="M178.451,119.905"/>
		<path clip-path="url(#SVGID_4_)" fill="none" stroke="#4D4D4D" stroke-width="0.999" d="M178.451,119.905"/>
		<path clip-path="url(#SVGID_4_)" fill-rule="evenodd" clip-rule="evenodd" fill="#DADADA" d="M148.508,119.813
			c0.503-0.323,0.65-0.992,0.327-1.495c-0.323-0.504-0.992-0.65-1.495-0.328l-3.225,2.067c-0.502,0.323-0.649,0.992-0.326,1.495
			c0.322,0.503,0.992,0.65,1.494,0.327L148.508,119.813"/>
		<path clip-path="url(#SVGID_4_)" fill-rule="evenodd" clip-rule="evenodd" fill="#DADADA" d="M208.467,119.931
			c-0.504-0.322-0.65-0.992-0.326-1.495c0.32-0.503,0.99-0.65,1.494-0.327l3.225,2.067c0.502,0.322,0.648,0.992,0.326,1.495
			s-0.992,0.649-1.494,0.327L208.467,119.931"/>
		<path clip-path="url(#SVGID_4_)" fill-rule="evenodd" clip-rule="evenodd" fill="#DADADA" d="M181.584,113.731
			c0.598,0,1.082-0.484,1.082-1.082s-0.484-1.082-1.082-1.082l-6.16-0.002c-0.598,0-1.082,0.484-1.082,1.082
			c-0.001,0.598,0.484,1.082,1.081,1.083L181.584,113.731"/>
		<path clip-path="url(#SVGID_4_)" fill-rule="evenodd" clip-rule="evenodd" fill="#4D4D4D" d="M244.918,45.149
			c1.537-1.025,2.967-1.578,0.018-2.93l0.361-0.724c0.834,0.507,1.662,0.966,2.557,1.413c0.895,0.446,1.76,0.832,2.666,1.194
			l-0.361,0.725c-1.5-0.869-2.408-0.08-4.336,1.123c0,0-5.197,3.026-6.299,3.909c-0.604,0.482-0.953,1.06-1.242,1.638l-1.611,3.229
			c-0.939,1.88-1.047,2.037,1.211,3.315l-0.361,0.724c-1.123-0.651-2.24-1.255-3.422-1.845c-1.184-0.591-2.336-1.121-3.459-1.591
			L231,54.604c2.379,1.038,2.439,0.857,3.377-1.022l1.77-3.543c0.096-0.192,0.24-0.481,0.252-0.807l-0.373-6.507l-0.24-3.347
			c-0.234-1.631,0.078-1.47-1.154-2.327l-0.445-0.254l0.361-0.724c1.025,0.603,2.07,1.17,3.158,1.713
			c1.086,0.543,2.168,1.037,3.268,1.495l-0.363,0.725c-2.295-1.206-2.32-0.61-2.393-0.043l0.057,1.099l0.367,7.845l4.449-2.685
			L244.918,45.149"/>
	</g>
</g>
</svg>
